<?xml version="1.0" encoding="UTF-8" standalone="no"?>
<svg
   width="10in"
   height="10in"
   viewBox="0 0 640 640"
   version="1.1"
   id="svg1"
   xmlns="http://www.w3.org/2000/svg">
  <g
     fill="#9acd32"
     stroke="#008000"
     stroke-width="10"
     id="g1"
     transform="matrix(0.981,0,0,0.981,6.0800034,4.864)">
    <path
       d="M 593.8,59.1 H 46.2 C 20.7,59.1 0,79.8 0,105.2 v 301.5 c 0,25.5 20.7,46.2 46.2,46.2 h 547.7 c 25.5,0 46.2,-20.7 46.1,-46.1 V 105.2 C 640,79.8 619.3,59.1 593.8,59.1 Z M 338.5,360.6 H 277 v -120 L 215.5,317.5 154,240.6 v 120 H 92.3 V 151.4 h 61.5 l 61.5,76.9 61.5,-76.9 h 61.5 V 360.6 Z M 473.8,363.7 381.5,256 H 443 V 151.4 h 61.5 V 256 H 566 Z"
       id="path1" />
  </g>
</svg>
